<svg id="Camada_1" data-name="Camada 1" xmlns="http://www.w3.org/2000/svg" viewBox="0 0 714.24 410.09"><defs><style>.cls-1{fill:#fff;}</style></defs><polygon class="cls-1" points="-12.06 412.37 335.26 -0.97 454.59 -0.97 107.27 412.37 -12.06 412.37"/><polygon class="cls-1" points="9.4 402.37 339.92 9.03 433.13 9.03 102.61 402.37 9.4 402.37"/><polygon points="9.4 402.37 339.92 9.03 433.13 9.03 102.61 402.37 9.4 402.37"/><polygon points="30.87 392.37 344.58 19.03 411.66 19.03 97.95 392.37 30.87 392.37"/><polygon class="cls-1" points="111.07 412.37 452.65 -0.97 595.57 -0.97 248.25 412.37 111.07 412.37"/><polygon class="cls-1" points="132.31 402.37 457.36 9.03 574.11 9.03 243.59 402.37 132.31 402.37"/><polygon points="132.31 402.37 457.36 9.03 574.11 9.03 243.59 402.37 132.31 402.37"/><polygon points="153.54 392.37 462.07 19.03 552.64 19.03 238.93 392.37 153.54 392.37"/><polygon class="cls-1" points="587.98 412.37 587.98 198.21 404.8 412.37 250.7 412.37 585.66 14.15 592.83 5.61 599.62 -2.28 703.38 -2.28 703.38 412.37 587.98 412.37"/><polygon class="cls-1" points="597.98 402.37 597.98 171.13 400.19 402.37 272.18 402.37 593.31 20.59 600.4 12.13 604.2 7.72 693.38 7.72 693.38 402.37 597.98 402.37"/><polygon points="597.98 402.37 597.98 171.13 400.19 402.37 272.18 402.37 593.31 20.59 600.4 12.13 604.2 7.72 693.38 7.72 693.38 402.37 597.98 402.37"/><polygon points="683.38 17.72 683.38 392.37 607.98 392.37 607.98 144.06 395.59 392.37 293.66 392.37 478.71 172.36 600.77 27.25 600.93 27.07 607.98 18.66 608.78 17.72 683.38 17.72"/></svg>