<svg width="20" height="28" viewBox="0 0 20 28" fill="none" xmlns="http://www.w3.org/2000/svg">
<path d="M9.8 0C4.382 0 0 4.382 0 9.8C0 12.236 0.7 14.518 1.974 16.576C3.304 18.732 5.054 20.58 6.398 22.736C7.056 23.786 7.532 24.766 8.036 25.9C8.4 26.67 8.694 28 9.8 28C10.906 28 11.2 26.67 11.55 25.9C12.068 24.766 12.53 23.786 13.188 22.736C14.532 20.594 16.282 18.746 17.612 16.576C18.9 14.518 19.6 12.236 19.6 9.8C19.6 4.382 15.218 0 9.8 0ZM9.8 13.65C7.868 13.65 6.3 12.082 6.3 10.15C6.3 8.218 7.868 6.65 9.8 6.65C11.732 6.65 13.3 8.218 13.3 10.15C13.3 12.082 11.732 13.65 9.8 13.65Z" fill="white"/>
</svg>
